<svg width="35" height="29" viewBox="0 0 35 29" fill="none" xmlns="http://www.w3.org/2000/svg">
<path d="M26.659 27C28.6045 27 30.1817 25.4228 30.1817 23.4773C30.1817 21.5317 28.6045 19.9545 26.659 19.9545C24.7134 19.9545 23.1362 21.5317 23.1362 23.4773C23.1362 25.4228 24.7134 27 26.659 27Z" stroke="black" stroke-width="2.81818" stroke-linecap="round" stroke-linejoin="round"/>
<path d="M8.34109 27C10.2866 27 11.8638 25.4228 11.8638 23.4773C11.8638 21.5317 10.2866 19.9545 8.34109 19.9545C6.39554 19.9545 4.81836 21.5317 4.81836 23.4773C4.81836 25.4228 6.39554 27 8.34109 27Z" stroke="black" stroke-width="2.81818" stroke-linecap="round" stroke-linejoin="round"/>
<path d="M23.1362 8.68182H28.7726L32.9999 12.9091V19.9546H23.1362V8.68182Z" stroke="black" stroke-width="2.81818" stroke-linecap="round" stroke-linejoin="round"/>
<path d="M23.1364 1.63635H2V19.9545H23.1364V1.63635Z" stroke="black" stroke-width="2.81818" stroke-linecap="round" stroke-linejoin="round"/>
</svg>
